# xmcd
#
# Track frame offsets: 
#        150
#        61587
#        104330
#        146228
#        202197
#        229109
#
# Disc length: 3561 seconds
#
# Revision: 1
# Processed by: cddbd v1.5.1PL2 Copyright (c) Steve Scherf et al.
# Submitted via: ExactAudioCopy v0.95b4
#
DISCID=540de706
DTITLE=Jacques Loussier Trio - Mozart Piano Concertos 20_23
DYEAR=2005
DGENRE=Jazz
TTITLE0=Concerto No. 20 in D Minor, KV 466: I. Allegro
TTITLE1=Concerto No. 20 in D Minor, KV 466: II. Romance
TTITLE2=Concerto No. 20 in D Minor, KV 466: III. Rondo presto
TTITLE3=Concerto No. 23 in A Major, KV 488: I. Allegro
TTITLE4=Concerto No. 23 in A Major, KV 488: II. Adagio
TTITLE5=Concerto No. 23 in A Major, KV 488: III. Allegro assai
EXTD=YEAR: 2005
EXTT0=
EXTT1=
EXTT2=
EXTT3=
EXTT4=
EXTT5=
PLAYORDER=
